<svg xmlns="http://www.w3.org/2000/svg" width="256" height="256" viewBox="0 0 100 100"><rect width="100" height="100" rx="20" fill="#282828"></rect><path fill="#ef0000" d="M31.95 81.72L31.95 81.72Q30.60 81.72 28.89 79.74Q27.18 77.76 27.18 75.74Q27.18 73.71 32.13 56.25Q37.08 38.79 37.80 29.70L37.80 29.70Q36.63 28.98 35.73 27.45Q34.83 25.92 34.83 24.75L34.83 24.75Q34.83 22.68 40.95 20.48Q47.07 18.27 54.50 18.27Q61.92 18.27 67.37 21.83Q72.81 25.38 72.81 31.86L72.81 31.86Q72.81 36.27 70.34 40.10Q67.86 43.92 64.31 46.35Q60.75 48.78 57.24 50.67Q53.73 52.56 51.26 53.78Q48.78 54.99 48.78 55.53L48.78 55.53Q48.78 57.51 51.89 60.66Q54.99 63.81 56.25 64.98Q57.52 66.16 59.58 68.09Q61.65 70.02 63.50 71.55Q65.34 73.08 66.47 74.07Q67.59 75.06 68.76 76.14L68.76 76.14Q71.01 78.21 71.01 79.47L71.01 79.47Q71.01 81.63 68.04 81.63L68.04 81.63Q62.64 81.63 52.66 72.23Q42.66 62.82 40.41 56.25L40.41 56.25Q36.18 70.29 35.55 72.50Q34.92 74.70 34.11 77.04L34.11 77.04Q32.67 81.72 31.95 81.72ZM45.55 32.13L45.55 32.13Q45.55 37.98 41.77 51.48L41.77 51.48Q43.30 50.31 47.61 48.02Q51.94 45.72 55.40 43.79Q58.86 41.85 61.74 38.61Q64.63 35.37 64.63 31.86L64.63 31.86Q64.63 26.28 54.91 26.28L54.91 26.28Q50.49 26.28 44.64 28.53L44.64 28.53Q45.55 30.51 45.55 32.13Z"></path></svg>